<?xml version="1.0" encoding="UTF-8"?>
<svg width="309.72" height="185.75" version="1.1" viewBox="0 0 309.72 185.75" xmlns="http://www.w3.org/2000/svg">
<style>@media (prefers-color-scheme: light) {
   tspan { fill: #333333; }
}
@media (prefers-color-scheme: dark) {
   tspan { fill: #dddddd; }
}</style>
<g transform="matrix(1.3905 0 0 1.3905 83.443 -1085.2)">
<g transform="matrix(.97526 0 0 .97526 -1.4847 22.613)" fill="#a4c2f4" fill-rule="evenodd" stroke="#595959" stroke-linejoin="round" stroke-miterlimit="8" stroke-width="762">
<path transform="matrix(.0011392 0 0 .0011392 -185.04 713.55)" d="m204101 72103 40865-9383.3 4591 31619z"/>
<path transform="matrix(.0011392 0 0 .0011392 -185.04 713.55)" d="m251751 94403-3746.1-30446 28946 16034z"/>
<path transform="matrix(.0011392 0 0 .0011392 -185.04 713.55)" d="m253751 95927 23820-13580 11556 11624z"/>
</g>
<path transform="matrix(.001111 0 0 .001111 -181.95 718.51)" d="m256422 79736-17304-2688" fill-opacity="0"/>
<g transform="matrix(.97526 0 0 .97526 -1.4847 22.613)" stroke="#f1c232" stroke-width="762">
<path transform="matrix(.0011392 0 0 .0011392 -185.04 713.55)" d="m253841 79335-12143-1886.3" fill="none" stroke-linejoin="round" stroke-miterlimit="8"/>
<path transform="matrix(.0011392 0 0 .0011392 -185.04 713.55)" d="m253841 79335-978.33 715.23 2458-485.37-2195-1208.2z" fill="#f1c232" fill-rule="evenodd" stroke-miterlimit="10"/>
<path transform="matrix(.0011392 0 0 .0011392 -185.04 713.55)" d="m241698 77449 978.33-715.23-2458 485.37 2195 1208.2z" fill="#f1c232" fill-rule="evenodd" stroke-miterlimit="10"/>
</g>
<path transform="matrix(.001111 0 0 .001111 -181.95 718.51)" d="m261934 81659 11664 6528" fill-opacity="0"/>
<g transform="matrix(.97526 0 0 .97526 -1.4847 22.613)" stroke="#38761d" stroke-width="762">
<path transform="matrix(.0011392 0 0 .0011392 -185.04 713.55)" d="m264212 82934 7106.4 3977.2" fill="none" stroke-linejoin="round" stroke-miterlimit="8"/>
<path transform="matrix(.0011392 0 0 .0011392 -185.04 713.55)" d="m264212 82934 1166.3-329.27-2473-402.07 1636 1897.6z" fill="#38761d" fill-rule="evenodd" stroke-miterlimit="10"/>
<path transform="matrix(.0011392 0 0 .0011392 -185.04 713.55)" d="m271319 86912-1166.3 329.28 2473 402.07-1636-1897.6z" fill="#38761d" fill-rule="evenodd" stroke-miterlimit="10"/>
</g>
<path transform="matrix(.001111 0 0 .001111 -181.95 718.51)" d="m246720 55710v44496" fill-opacity="0" stroke="#c00" stroke-dasharray="4572, 3429" stroke-linejoin="round" stroke-miterlimit="8" stroke-width="1143"/>
<g fill-rule="evenodd" stroke-linejoin="round" stroke-miterlimit="8" stroke-width="762">
<path transform="matrix(.001111 0 0 .001111 -181.95 718.51)" d="m216932 104651h18924v13584h-18924z" fill="#828282" fill-opacity=".19444" stroke="#bf9000"/>
<path transform="matrix(.001111 0 0 .001111 -181.95 718.51)" d="m235859 104651h18924v13584h-18924z" fill="#828282" fill-opacity=".19444" stroke="#bf9000"/>
<path transform="matrix(.001111 0 0 .001111 -181.95 718.51)" d="m309853 56631-30721 21996-28847-16344z" fill="#a4c2f4" stroke="#595959"/>
</g>
<path transform="matrix(.001111 0 0 .001111 -181.95 718.51)" d="m263345 78198 15696-10896" fill-opacity="0"/>
<g transform="matrix(.97526 0 0 .97526 -1.4847 22.613)" stroke="#15c" stroke-width="762">
<path transform="matrix(.0011392 0 0 .0011392 -185.04 713.55)" d="m265490 76709 11406-7917.6" fill="none" stroke-linejoin="round" stroke-miterlimit="8"/>
<path transform="matrix(.0011392 0 0 .0011392 -185.04 713.55)" d="m265490 76709 215.28-1192.6-1445.4 2046.6 2422.7-638.67z" fill="#15c" fill-rule="evenodd" stroke-miterlimit="10"/>
<path transform="matrix(.0011392 0 0 .0011392 -185.04 713.55)" d="m276896 68791-215.28 1192.6 1445.4-2046.5-2422.7 638.66z" clip-path="url(#z)" fill="#15c" fill-rule="evenodd" stroke-miterlimit="10"/>
</g>
<g fill="#828282" fill-opacity=".19444" fill-rule="evenodd" stroke-linejoin="round" stroke-miterlimit="8" stroke-width="762">
<path transform="matrix(.001111 0 0 .001111 -181.95 718.51)" d="m237156 116811h18924v13584h-18924z" clip-path="url(#y)" stroke="#15c"/>
<path transform="matrix(.001111 0 0 .001111 -181.95 718.51)" d="m275009 116811h18924v13584h-18924z" stroke="#15c"/>
<path transform="matrix(.001111 0 0 .001111 -181.95 718.51)" d="m238457 128963h18924v13584h-18924z" stroke="#38761d"/>
</g>
<path transform="matrix(.001111 0 0 .001111 -181.95 718.51)" d="m256080 123603h18924" fill-opacity="0" stroke="#15c" stroke-linejoin="round" stroke-miterlimit="8" stroke-width="762"/>
<g transform="matrix(.97526 0 0 .97526 -1.4847 22.613)" fill-rule="evenodd">
<path transform="matrix(.0011392 0 0 .0011392 -185.04 713.55)" d="m279908 66258c0-924.52 749.47-1674 1674-1674 443.97 0 869.75 176.37 1183.7 490.3s490.31 739.73 490.31 1183.7c0 924.52-749.47 1674-1674 1674s-1674-749.48-1674-1674z"/>
<path transform="matrix(.0011392 0 0 .0011392 -185.04 713.55)" d="m273601 89861c0-924.53 749.48-1674 1674-1674 443.98 0 869.76 176.36 1183.7 490.3 313.95 313.93 490.32 739.72 490.32 1183.7 0 924.52-749.5 1674-1674 1674-924.52 0-1674-749.48-1674-1674z"/>
<path transform="matrix(.0011392 0 0 .0011392 -185.04 713.55)" d="m258209 79872c0-924.53 749.47-1674 1674-1674 443.97 0 869.76 176.36 1183.7 490.3s490.31 739.73 490.31 1183.7c0 924.52-749.48 1674-1674 1674-924.53 0-1674-749.48-1674-1674z"/>
<path transform="matrix(.0011392 0 0 .0011392 -185.04 713.55)" d="m233982 76523c0-924.52 749.48-1674 1674-1674 443.98 0 869.76 176.37 1183.7 490.31 313.94 313.93 490.3 739.72 490.3 1183.7 0 924.52-749.47 1674-1674 1674-924.52 0-1674-749.48-1674-1674z"/>
</g>
<g fill="#828282" fill-opacity=".19444" fill-rule="evenodd" stroke-linejoin="round" stroke-miterlimit="8" stroke-width="762">
<path transform="matrix(.001111 0 0 .001111 -181.95 718.51)" d="m219707 144852h18924v13584h-18924z" stroke="#999"/>
<path transform="matrix(.001111 0 0 .001111 -181.95 718.51)" d="m257560 144852h18924v13584h-18924z" stroke="#999"/>
<path transform="matrix(.001111 0 0 .001111 -181.95 718.51)" d="m276488 144852h18924v13584h-18924z" stroke="#900"/>
<path transform="matrix(.001111 0 0 .001111 -181.95 718.51)" d="m219707 158432h18924v13584h-18924z" stroke="#999"/>
<path transform="matrix(.001111 0 0 .001111 -181.95 718.51)" d="m257560 158432h18924v13584h-18924z" stroke="#999"/>
<path transform="matrix(.001111 0 0 .001111 -181.95 718.51)" d="m276488 158432h18924v13584h-18924z" stroke="#900"/>
<path transform="matrix(.001111 0 0 .001111 -181.95 718.51)" d="m257559 128963h18924v13584h-18924z" stroke="#38761d"/>
<path transform="matrix(.001111 0 0 .001111 -181.95 718.51)" d="m238635 158432h18924v13584h-18924z" stroke="#900"/>
<path transform="matrix(.001111 0 0 .001111 -181.95 718.51)" d="m238635 144852h18924v13584h-18924z" stroke="#900"/>
</g>
<g transform="matrix(.97526 0 0 .97526 -1.4847 22.613)" fill-opacity="0" stroke-dasharray="4572, 3429" stroke-linejoin="round" stroke-miterlimit="8" stroke-width="1143">
<path transform="matrix(.0011392 0 0 .0011392 -185.04 713.55)" d="m227195 56145v44496" stroke="#999"/>
<path transform="matrix(.0011392 0 0 .0011392 -185.04 713.55)" d="m278403 56145v44496" stroke="#c00"/>
<path transform="matrix(.0011392 0 0 .0011392 -185.04 713.55)" d="m267768 55710v44496" stroke="#999"/>
</g>
<path transform="matrix(.001111 0 0 .001111 -181.95 718.51)" d="m223439 85885 689.53-697.16 3069.4 3035.7 3069.3-3035.7 689.52 697.16-3061.6 3028.1 3061.6 3028.1-689.52 697.17-3069.3-3035.7-3069.4 3035.7-689.53-697.17 3061.7-3028.1z" fill="#e06666" fill-rule="evenodd"/>
<path transform="matrix(.001111 0 0 .001111 -181.95 718.51)" d="m225414 155763 689.53-697.17 3069.3 3035.7 3069.3-3035.7 689.52 697.17-3061.6 3028.1 3061.6 3028.1-689.52 697.16-3069.3-3035.7-3069.3 3035.7-689.53-697.16 3061.7-3028.1z" fill="#e06666" fill-rule="evenodd"/>
<path transform="matrix(.001111 0 0 .001111 -181.95 718.51)" d="m222602 175044h68772" fill-opacity="0"/>
<path transform="matrix(.001111 0 0 .001111 -181.95 718.51)" d="m222602 175044h66486" fill="none" stroke="#595959" stroke-linejoin="round" stroke-miterlimit="8" stroke-width="381"/>
<path transform="matrix(.001111 0 0 .001111 -181.95 718.51)" d="m289088 175673 1729-629.31-1729-629.31z" fill="#595959" fill-rule="evenodd" stroke="#595959" stroke-miterlimit="10" stroke-width="381"/>
<g letter-spacing="0px" word-spacing="0px">
<g transform="matrix(.97526 0 0 .97526 -1.4847 22.613)" font-family="sans-serif" font-size="10.667px" stroke-width="1px">
<text x="64.488861" y="844.39624" style="line-height:125%" xml:space="preserve"><tspan x="64.488861" y="844.39624" font-family="'Liberation Sans'" font-size="10.667px" font-weight="bold">+1</tspan></text>
<text x="89.749542" y="858.0304" style="line-height:125%" xml:space="preserve"><tspan x="89.749542" y="858.0304" font-family="'Liberation Sans'" font-size="10.667px" font-weight="bold">+1</tspan></text>
<text x="91.231323" y="871.87384" style="line-height:125%" xml:space="preserve"><tspan x="91.231323" y="871.87384" dominant-baseline="auto" fill="#000000" font-family="'Liberation Sans'" font-size="10.667px" font-weight="bold" letter-spacing="0px" stop-color="#000000" stroke-width="1px" word-spacing="0px" style="-inkscape-stroke:none;font-feature-settings:normal;font-variant-alternates:normal;font-variant-caps:normal;font-variant-east-asian:normal;font-variant-ligatures:normal;font-variant-numeric:normal;font-variant-position:normal;font-variation-settings:normal;line-height:125%;text-decoration-color:#000000;text-decoration-line:none;text-decoration-style:solid;text-indent:0;text-orientation:mixed;text-transform:none;white-space:normal">+1</tspan></text>
<text x="72.873474" y="889.9754" style="line-height:125%" xml:space="preserve"><tspan x="72.873474" y="889.9754" dominant-baseline="auto" fill="#000000" font-family="'Liberation Sans'" font-size="10.667px" font-weight="bold" letter-spacing="0px" stop-color="#000000" stroke-width="1px" word-spacing="0px" style="-inkscape-stroke:none;font-feature-settings:normal;font-variant-alternates:normal;font-variant-caps:normal;font-variant-east-asian:normal;font-variant-ligatures:normal;font-variant-numeric:normal;font-variant-position:normal;font-variation-settings:normal;line-height:125%;text-decoration-color:#000000;text-decoration-line:none;text-decoration-style:solid;text-indent:0;text-orientation:mixed;text-transform:none;white-space:normal">1</tspan></text>
<text x="94.436661" y="905.4458" style="line-height:125%" xml:space="preserve"><tspan x="94.436661" y="905.4458" dominant-baseline="auto" fill="#000000" font-family="'Liberation Sans'" font-size="10.667px" font-weight="bold" letter-spacing="0px" stop-color="#000000" stroke-width="1px" word-spacing="0px" style="-inkscape-stroke:none;font-feature-settings:normal;font-variant-alternates:normal;font-variant-caps:normal;font-variant-east-asian:normal;font-variant-ligatures:normal;font-variant-numeric:normal;font-variant-position:normal;font-variation-settings:normal;line-height:125%;text-decoration-color:#000000;text-decoration-line:none;text-decoration-style:solid;text-indent:0;text-orientation:mixed;text-transform:none;white-space:normal">1</tspan></text>
<text x="94.436661" y="889.9754" style="line-height:125%" xml:space="preserve"><tspan x="94.436661" y="889.9754" dominant-baseline="auto" fill="#000000" font-family="'Liberation Sans'" font-size="10.667px" font-weight="bold" letter-spacing="0px" stop-color="#000000" stroke-width="1px" word-spacing="0px" style="-inkscape-stroke:none;font-feature-settings:normal;font-variant-alternates:normal;font-variant-caps:normal;font-variant-east-asian:normal;font-variant-ligatures:normal;font-variant-numeric:normal;font-variant-position:normal;font-variation-settings:normal;line-height:125%;text-decoration-color:#000000;text-decoration-line:none;text-decoration-style:solid;text-indent:0;text-orientation:mixed;text-transform:none;white-space:normal">1</tspan></text>
<text x="137.55972" y="905.4458" style="line-height:125%" xml:space="preserve"><tspan x="137.55972" y="905.4458" dominant-baseline="auto" fill="#000000" font-family="'Liberation Sans'" font-size="10.667px" font-weight="bold" letter-spacing="0px" stop-color="#000000" stroke-width="1px" word-spacing="0px" style="-inkscape-stroke:none;font-feature-settings:normal;font-variant-alternates:normal;font-variant-caps:normal;font-variant-east-asian:normal;font-variant-ligatures:normal;font-variant-numeric:normal;font-variant-position:normal;font-variation-settings:normal;line-height:125%;text-decoration-color:#000000;text-decoration-line:none;text-decoration-style:solid;text-indent:0;text-orientation:mixed;text-transform:none;white-space:normal">1</tspan></text>
<text x="6.6501393" y="881.36035" fill="none" font-family="sans-serif" font-size="13.333px" letter-spacing="0px" stroke="#000000" stroke-width="1px" word-spacing="0px" style="line-height:125%" xml:space="preserve"><tspan x="6.6501393" y="881.36035"/></text>
</g>
<g transform="matrix(.97526 0 0 .97526 -1.4847 22.613)" font-family="'Liberation Sans'" font-size="10.667px" font-weight="bold" stroke-width="1px">
<text x="89.626022" y="844.17749" dominant-baseline="auto" stop-color="#000000" style="-inkscape-stroke:none;font-feature-settings:normal;font-variant-alternates:normal;font-variant-caps:normal;font-variant-east-asian:normal;font-variant-ligatures:normal;font-variant-numeric:normal;font-variant-position:normal;font-variation-settings:normal;line-height:125%;text-decoration-color:#000000;text-decoration-line:none;text-decoration-style:solid;text-indent:0;text-orientation:mixed;text-transform:none;white-space:normal" xml:space="preserve"><tspan x="89.626022" y="844.17749" dominant-baseline="auto" fill="#000000" font-family="'Liberation Sans'" font-size="10.667px" font-weight="bold" letter-spacing="0px" stop-color="#000000" stroke-width="1px" word-spacing="0px" style="-inkscape-stroke:none;font-feature-settings:normal;font-variant-alternates:normal;font-variant-caps:normal;font-variant-east-asian:normal;font-variant-ligatures:normal;font-variant-numeric:normal;font-variant-position:normal;font-variation-settings:normal;line-height:125%;text-decoration-color:#000000;text-decoration-line:none;text-decoration-style:solid;text-indent:0;text-orientation:mixed;text-transform:none;white-space:normal">-1</tspan></text>
<text x="134.22603" y="858.0304" dominant-baseline="auto" stop-color="#000000" style="-inkscape-stroke:none;font-feature-settings:normal;font-variant-alternates:normal;font-variant-caps:normal;font-variant-east-asian:normal;font-variant-ligatures:normal;font-variant-numeric:normal;font-variant-position:normal;font-variation-settings:normal;line-height:125%;text-decoration-color:#000000;text-decoration-line:none;text-decoration-style:solid;text-indent:0;text-orientation:mixed;text-transform:none;white-space:normal" xml:space="preserve"><tspan x="134.22603" y="858.0304" dominant-baseline="auto" fill="#000000" font-family="'Liberation Sans'" font-size="10.667px" font-weight="bold" letter-spacing="0px" stop-color="#000000" stroke-width="1px" word-spacing="0px" style="-inkscape-stroke:none;font-feature-settings:normal;font-variant-alternates:normal;font-variant-caps:normal;font-variant-east-asian:normal;font-variant-ligatures:normal;font-variant-numeric:normal;font-variant-position:normal;font-variation-settings:normal;line-height:125%;text-decoration-color:#000000;text-decoration-line:none;text-decoration-style:solid;text-indent:0;text-orientation:mixed;text-transform:none;white-space:normal">-1</tspan></text>
<text x="114.34745" y="871.8736" dominant-baseline="auto" stop-color="#000000" style="-inkscape-stroke:none;font-feature-settings:normal;font-variant-alternates:normal;font-variant-caps:normal;font-variant-east-asian:normal;font-variant-ligatures:normal;font-variant-numeric:normal;font-variant-position:normal;font-variation-settings:normal;line-height:125%;text-decoration-color:#000000;text-decoration-line:none;text-decoration-style:solid;text-indent:0;text-orientation:mixed;text-transform:none;white-space:normal" xml:space="preserve"><tspan x="114.34745" y="871.8736" dominant-baseline="auto" fill="#000000" font-family="'Liberation Sans'" font-size="10.667px" font-weight="bold" letter-spacing="0px" stop-color="#000000" stroke-width="1px" word-spacing="0px" style="-inkscape-stroke:none;font-feature-settings:normal;font-variant-alternates:normal;font-variant-caps:normal;font-variant-east-asian:normal;font-variant-ligatures:normal;font-variant-numeric:normal;font-variant-position:normal;font-variation-settings:normal;line-height:125%;text-decoration-color:#000000;text-decoration-line:none;text-decoration-style:solid;text-indent:0;text-orientation:mixed;text-transform:none;white-space:normal">-1</tspan></text>
<text x="135.91129" y="889.9754" dominant-baseline="auto" stop-color="#000000" style="-inkscape-stroke:none;font-feature-settings:normal;font-variant-alternates:normal;font-variant-caps:normal;font-variant-east-asian:normal;font-variant-ligatures:normal;font-variant-numeric:normal;font-variant-position:normal;font-variation-settings:normal;line-height:125%;text-decoration-color:#000000;text-decoration-line:none;text-decoration-style:solid;text-indent:0;text-orientation:mixed;text-transform:none;white-space:normal" xml:space="preserve"><tspan x="135.91129" y="889.9754" dominant-baseline="auto" fill="#000000" font-family="'Liberation Sans'" font-size="10.667px" font-weight="bold" letter-spacing="0px" stop-color="#000000" stroke-width="1px" word-spacing="0px" style="-inkscape-stroke:none;font-feature-settings:normal;font-variant-alternates:normal;font-variant-caps:normal;font-variant-east-asian:normal;font-variant-ligatures:normal;font-variant-numeric:normal;font-variant-position:normal;font-variation-settings:normal;line-height:125%;text-decoration-color:#000000;text-decoration-line:none;text-decoration-style:solid;text-indent:0;text-orientation:mixed;text-transform:none;white-space:normal">-1</tspan></text>
<text x="114.34808" y="889.9754" dominant-baseline="auto" stop-color="#000000" style="-inkscape-stroke:none;font-feature-settings:normal;font-variant-alternates:normal;font-variant-caps:normal;font-variant-east-asian:normal;font-variant-ligatures:normal;font-variant-numeric:normal;font-variant-position:normal;font-variation-settings:normal;line-height:125%;text-decoration-color:#000000;text-decoration-line:none;text-decoration-style:solid;text-indent:0;text-orientation:mixed;text-transform:none;white-space:normal" xml:space="preserve"><tspan x="114.34808" y="889.9754" dominant-baseline="auto" fill="#000000" font-family="'Liberation Sans'" font-size="10.667px" font-weight="bold" letter-spacing="0px" stop-color="#000000" stroke-width="1px" word-spacing="0px" style="-inkscape-stroke:none;font-feature-settings:normal;font-variant-alternates:normal;font-variant-caps:normal;font-variant-east-asian:normal;font-variant-ligatures:normal;font-variant-numeric:normal;font-variant-position:normal;font-variation-settings:normal;line-height:125%;text-decoration-color:#000000;text-decoration-line:none;text-decoration-style:solid;text-indent:0;text-orientation:mixed;text-transform:none;white-space:normal">-1</tspan></text>
</g>
<text x="111.85268" y="905.71045" font-family="sans-serif" font-size="10.403px" stroke-width=".97526px" style="line-height:125%" xml:space="preserve"><tspan x="111.85268" y="905.71045" dominant-baseline="auto" fill="#000000" font-family="'Liberation Sans'" font-size="10.403px" font-weight="bold" letter-spacing="0px" stop-color="#000000" stroke-width=".97526px" word-spacing="0px" style="-inkscape-stroke:none;font-feature-settings:normal;font-variant-alternates:normal;font-variant-caps:normal;font-variant-east-asian:normal;font-variant-ligatures:normal;font-variant-numeric:normal;font-variant-position:normal;font-variation-settings:normal;line-height:125%;text-decoration-color:#000000;text-decoration-line:none;text-decoration-style:solid;text-indent:0;text-orientation:mixed;text-transform:none;white-space:normal">2</tspan></text>
<text x="69.585777" y="905.6571" font-family="sans-serif" font-size="10.403px" stroke-width=".97526px" style="line-height:125%" xml:space="preserve"><tspan x="69.585777" y="905.6571" dominant-baseline="auto" fill="#000000" font-family="'Liberation Sans'" font-size="10.403px" font-weight="bold" letter-spacing="0px" stop-color="#000000" stroke-width=".97526px" word-spacing="0px" style="-inkscape-stroke:none;font-feature-settings:normal;font-variant-alternates:normal;font-variant-caps:normal;font-variant-east-asian:normal;font-variant-ligatures:normal;font-variant-numeric:normal;font-variant-position:normal;font-variation-settings:normal;line-height:125%;text-decoration-color:#000000;text-decoration-line:none;text-decoration-style:solid;text-indent:0;text-orientation:mixed;text-transform:none;white-space:normal">0</tspan></text>
</g>
<text x="-60.307796" y="890.4679" font-size="11.703px" stroke-width=".97526" style="line-height:125%" xml:space="preserve"><tspan x="-60.307796" y="890.4679" dominant-baseline="auto" fill="#000000" font-family="'Liberation Sans'" font-size="10.403px" font-weight="bold" letter-spacing="0px" stop-color="#000000" stroke-width=".97526px" word-spacing="0px" style="-inkscape-stroke:none;font-feature-settings:normal;font-variant-alternates:normal;font-variant-caps:normal;font-variant-east-asian:normal;font-variant-ligatures:normal;font-variant-numeric:normal;font-variant-position:normal;font-variation-settings:normal;line-height:125%;text-decoration-color:#000000;text-decoration-line:none;text-decoration-style:solid;text-indent:0;text-orientation:mixed;text-transform:none;white-space:normal">Summed Connections</tspan></text>
<text x="-60.218304" y="905.6571" font-size="11.703px" stroke-width=".97526" style="line-height:125%" xml:space="preserve"><tspan x="-60.218304" y="905.6571" dominant-baseline="auto" fill="#000000" font-family="'Liberation Sans'" font-size="10.403px" font-weight="bold" letter-spacing="0px" stop-color="#000000" stroke-width=".97526px" word-spacing="0px" style="-inkscape-stroke:none;font-feature-settings:normal;font-variant-alternates:normal;font-variant-caps:normal;font-variant-east-asian:normal;font-variant-ligatures:normal;font-variant-numeric:normal;font-variant-position:normal;font-variation-settings:normal;line-height:125%;text-decoration-color:#000000;text-decoration-line:none;text-decoration-style:solid;text-indent:0;text-orientation:mixed;text-transform:none;white-space:normal">Prefix Summed</tspan></text>
</g>
</svg>
