<?xml version="1.0" encoding="UTF-8"?>
<svg width="292.32" height="224.58" version="1.1" viewBox="0 0 292.32 224.58" xmlns="http://www.w3.org/2000/svg">
<style>@media (prefers-color-scheme: light) {
   .fg-fl { fill: #333333; }
   .fg-st { stroke: #333333; }
}
@media (prefers-color-scheme: dark) {
   .fg-fl { fill: #dddddd; }
   .bg-fl { fill: #888888; }
   .fg-st { stroke: #dddddd; }
}</style>
<g transform="translate(-52.484 -703.75)">
<path transform="matrix(.0020185 0 0 .0020185 -341.22 604.42)" d="m244268 123409h12624v7428h-12624z" fill="#eee" fill-rule="evenodd" stroke="#595959" stroke-linejoin="round" stroke-miterlimit="8" stroke-width="762"/>
<text transform="matrix(.76906 0 0 .76906 160.59 866.35)" clip-path="url(#dy)" xml:space="preserve"><tspan x="0" y="0" fill="#999999" font-family="'Artifakt Element'" font-size="18.667px" font-weight="bold">6</tspan></text>
<path transform="matrix(.0020185 0 0 .0020185 -341.22 604.42)" d="m257015 123408h12624v7428h-12624z" clip-path="url(#dz)" fill="#eee" fill-rule="evenodd" stroke="#595959" stroke-linejoin="round" stroke-miterlimit="8" stroke-width="762"/>
<text transform="matrix(.76906 0 0 .76906 186.32 866.35)" xml:space="preserve"><tspan x="0" y="0" fill="#000000" font-family="'Artifakt Element'" font-size="18.667px" font-weight="bold">7</tspan></text>
<path transform="matrix(.0020185 0 0 .0020185 -341.22 604.42)" d="m269641 123409h12624v7428h-12624z" fill="#eee" fill-rule="evenodd" stroke="#595959" stroke-linejoin="round" stroke-miterlimit="8" stroke-width="762"/>
<text transform="matrix(.76906 0 0 .76906 211.82 866.35)" xml:space="preserve"><tspan x="0" y="0" fill="#000000" font-family="'Artifakt Element'" font-size="18.667px" font-weight="bold">8</tspan></text>
<path transform="matrix(.0020185 0 0 .0020185 -341.22 604.42)" d="m282388 123408h12624v7428h-12624z" fill="#eee" fill-rule="evenodd" stroke="#595959" stroke-linejoin="round" stroke-miterlimit="8" stroke-width="762"/>
<text transform="matrix(.76906 0 0 .76906 237.55 866.35)" xml:space="preserve"><tspan x="0" y="0" fill="#000000" font-family="'Artifakt Element'" font-size="18.667px" font-weight="bold">9</tspan></text>
<path transform="matrix(.0020185 0 0 .0020185 -341.22 604.42)" d="m244268 130837h12624v7428h-12624z" fill="#eee" fill-rule="evenodd" stroke="#595959" stroke-linejoin="round" stroke-miterlimit="8" stroke-width="762"/>
<text transform="matrix(.76906 0 0 .76906 157.41 881.35)" xml:space="preserve"><tspan x="0" y="0" fill="#999999" font-family="'Artifakt Element'" font-size="18.667px" font-weight="bold">…</tspan></text>
<path transform="matrix(.0020185 0 0 .0020185 -341.22 604.42)" d="m257015 130836h12624v7428h-12624z" fill="#eee" fill-rule="evenodd" stroke="#595959" stroke-linejoin="round" stroke-miterlimit="8" stroke-width="762"/>
<text transform="matrix(.76906 0 0 .76906 186.32 881.35)" xml:space="preserve"><tspan x="0" y="0" fill="#000000" font-family="'Artifakt Element'" font-size="18.667px" font-weight="bold">5</tspan></text>
<path transform="matrix(.0020185 0 0 .0020185 -341.22 604.42)" d="m269641 130837h12624v7428h-12624z" fill="#eee" fill-rule="evenodd" stroke="#595959" stroke-linejoin="round" stroke-miterlimit="8" stroke-width="762"/>
<text transform="matrix(.76906 0 0 .76906 211.82 881.35)" xml:space="preserve"><tspan x="0" y="0" fill="#000000" font-family="'Artifakt Element'" font-size="18.667px" font-weight="bold">3</tspan></text>
<path transform="matrix(.0020185 0 0 .0020185 -341.22 604.42)" d="m282388 130836h12624v7428h-12624z" fill="#eee" fill-rule="evenodd" stroke="#595959" stroke-linejoin="round" stroke-miterlimit="8" stroke-width="762"/>
<text transform="matrix(.76906 0 0 .76906 237.55 881.35)" xml:space="preserve"><tspan x="0" y="0" fill="#000000" font-family="'Artifakt Element'" font-size="18.667px" font-weight="bold">4</tspan></text>
<path transform="matrix(.0020185 0 0 .0020185 -341.22 604.42)" d="m295014 123409h12624v7428h-12624z" fill="#eee" fill-rule="evenodd" stroke="#595959" stroke-linejoin="round" stroke-miterlimit="8" stroke-width="762"/>
<text transform="matrix(.76906 0 0 .76906 259.03 866.35)" xml:space="preserve"><tspan x="0 10.378666" y="0" fill="#999999" font-family="'Artifakt Element'" font-size="18.667px" font-weight="bold">10</tspan></text>
<path transform="matrix(.0020185 0 0 .0020185 -341.22 604.42)" d="m295014 130837h12624v7428h-12624z" fill="#eee" fill-rule="evenodd" stroke="#595959" stroke-linejoin="round" stroke-miterlimit="8" stroke-width="762"/>
<text transform="matrix(.76906 0 0 .76906 259.84 881.35)" xml:space="preserve"><tspan x="0" y="0" fill="#999999" font-family="'Artifakt Element'" font-size="18.667px" font-weight="bold">…</tspan></text>
<path transform="matrix(.0020185 0 0 .0020185 -341.22 604.42)" d="m196663 123409h47328v7428h-47328z" fill-opacity="0"/>
<text transform="matrix(.76906 0 0 .76906 55.745 866.36)" dominant-baseline="auto" fill="#000000" font-family="'Liberation Sans'" font-size="18.667px" font-weight="bold" stop-color="#000000" style="-inkscape-stroke:none;font-feature-settings:normal;font-variant-alternates:normal;font-variant-caps:normal;font-variant-east-asian:normal;font-variant-ligatures:normal;font-variant-numeric:normal;font-variant-position:normal;font-variation-settings:normal;line-height:normal;text-decoration-color:#000000;text-decoration-line:none;text-decoration-style:solid;text-indent:0;text-orientation:mixed;text-transform:none;white-space:normal" xml:space="preserve"><tspan x="0 12.431999 23.818666 31.079998 37.295998 47.674664 59.061333 64.231995 69.402664 80.78933 92.175995 102.55466" y="0" dominant-baseline="auto" fill="#000000" font-family="'Liberation Sans'" font-size="18.667px" font-weight="bold" stop-color="#000000" style="-inkscape-stroke:none;font-feature-settings:normal;font-variant-alternates:normal;font-variant-caps:normal;font-variant-east-asian:normal;font-variant-ligatures:normal;font-variant-numeric:normal;font-variant-position:normal;font-variation-settings:normal;line-height:normal;text-decoration-color:#000000;text-decoration-line:none;text-decoration-style:solid;text-indent:0;text-orientation:mixed;text-transform:none;white-space:normal" class="fg-fl">Sorted index</tspan></text>
<path transform="matrix(.0020185 0 0 .0020185 -341.22 604.42)" d="m196663 130837h47328v7428h-47328z" fill-opacity="0"/>
<text transform="matrix(.76906 0 0 .76906 55.745 881.35)" clip-path="url(#cz)" dominant-baseline="auto" fill="#000000" font-family="'Liberation Sans'" font-size="18.667px" font-weight="bold" stop-color="#000000" style="-inkscape-stroke:none;font-feature-settings:normal;font-variant-alternates:normal;font-variant-caps:normal;font-variant-east-asian:normal;font-variant-ligatures:normal;font-variant-numeric:normal;font-variant-position:normal;font-variation-settings:normal;line-height:normal;text-decoration-color:#000000;text-decoration-line:none;text-decoration-style:solid;text-indent:0;text-orientation:mixed;text-transform:none;white-space:normal" xml:space="preserve"><tspan x="0 12.431999 23.818666 31.079998 37.295998 47.674664 59.061333 64.231995 69.402664 75.618668 85.99733" y="0" dominant-baseline="auto" fill="#000000" font-family="'Liberation Sans'" font-size="18.667px" font-weight="bold" stop-color="#000000" style="-inkscape-stroke:none;font-feature-settings:normal;font-variant-alternates:normal;font-variant-caps:normal;font-variant-east-asian:normal;font-variant-ligatures:normal;font-variant-numeric:normal;font-variant-position:normal;font-variation-settings:normal;line-height:normal;text-decoration-color:#000000;text-decoration-line:none;text-decoration-style:solid;text-indent:0;text-orientation:mixed;text-transform:none;white-space:normal" class="fg-fl">Sorted item</tspan></text>
<path transform="matrix(.0020185 0 0 .0020185 -341.22 604.42)" d="m195431 69210h135984v47244h-135984z" clip-path="url(#cy)" fill-opacity="0" stroke="#595959" stroke-linejoin="round" stroke-miterlimit="8" stroke-width="762"/>
<g fill-rule="evenodd" stroke-linejoin="round" stroke-miterlimit="8" stroke-width="762">
<g transform="matrix(1.4943 0 0 1.4943 -25.942 -458.87)" fill="#efefef" stroke="#b7b7b7">
<path transform="matrix(.0013508 0 0 .0013508 -210.99 711.57)" d="m207589 86904 14123-252.47-6126.1 12582z"/>
<path transform="matrix(.0013508 0 0 .0013508 -210.99 711.57)" d="m196933 88297 7775.8-2392.5 1529.7 21650z"/>
<path transform="matrix(.0013508 0 0 .0013508 -210.99 711.57)" d="m206394 87832 9181 14189-7969.4 5531.6z"/>
<path transform="matrix(.0013508 0 0 .0013508 -210.99 711.57)" d="m223330 86515 6300.7 5970.8-12648 7864z"/>
<path transform="matrix(.0013508 0 0 .0013508 -210.99 711.57)" d="m236910 89872-9440.8 5587.8 11377 7977.2z"/>
</g>
<g transform="matrix(1.4943 0 0 1.4943 -25.942 -458.87)">
<path transform="matrix(.0013508 0 0 .0013508 -210.99 711.57)" d="m244736 86659-6513.4 1197.3 11634 18682z" fill="#ccc" stroke="#000" class="fg-st bg-fl"/>
<path transform="matrix(.0013508 0 0 .0013508 -210.99 711.57)" d="m238238 90156 2242.6 15601 8473.5 1340.9z" fill="#efefef" stroke="#b7b7b7"/>
<path transform="matrix(.0013508 0 0 .0013508 -210.99 711.57)" d="m226325 96010-660.02 7565.7 12914 1364.9z" fill="#efefef" stroke="#b7b7b7"/>
<path transform="matrix(.0013508 0 0 .0013508 -210.99 711.57)" d="m278010 108569-16109-7857.7 15720-11729z" fill="#ccc" stroke="#000" class="fg-st bg-fl"/>
<path transform="matrix(.0013508 0 0 .0013508 -210.99 711.57)" d="m291006 113038-10447-1591.2 13433-27161z" fill="#efefef" stroke="#b7b7b7"/>
<path transform="matrix(.0013508 0 0 .0013508 -210.99 711.57)" d="m280007 108133-422.47-22527 12863-2106.7z" fill="#efefef" stroke="#b7b7b7"/>
<path transform="matrix(.0013508 0 0 .0013508 -210.99 711.57)" d="m259981 99941-2927.1-10889 19774-2232.6z" fill="#ccc" stroke="#000" class="fg-st bg-fl"/>
</g>
<g transform="matrix(1.4943 0 0 1.4943 -25.942 -458.87)" fill="#efefef" stroke="#b7b7b7">
<path transform="matrix(.0013508 0 0 .0013508 -210.99 711.57)" d="m308942 83010-12920 13661 15214 2339.5z"/>
<path transform="matrix(.0013508 0 0 .0013508 -210.99 711.57)" d="m319617 73499-8849.8 6028 15303 15844z"/>
<path transform="matrix(.0013508 0 0 .0013508 -210.99 711.57)" d="m310733 82455 2659.5 18391 11443-4137.5z"/>
<path transform="matrix(.0013508 0 0 .0013508 -210.99 711.57)" d="m294458 98164-1076.9 10126 17456-7173.3z"/>
</g>
</g>
<path transform="matrix(.0020185 0 0 .0020185 -341.22 604.42)" d="m252665 69481v47244" fill-opacity="0" stroke="#595959" stroke-linejoin="round" stroke-miterlimit="8" stroke-width="1143"/>
<path transform="matrix(.0020185 0 0 .0020185 -341.22 604.42)" d="m252665 69210h25248v10812h-25248z" fill-opacity="0"/>
<text transform="matrix(.76906 0 0 .76906 175.53 760.37)" xml:space="preserve"><tspan x="0 6.2159996 16.594666 21.765333 32.143997 42.522667" y="0" fill="#000000" font-family="'Artifakt Element'" font-size="18.667px" font-weight="bold" class="fg-fl">[8,16)</tspan></text>
<path transform="matrix(.0020185 0 0 .0020185 -341.22 604.42)" d="m195431 69210h20244v10812h-20244z" fill-opacity="0"/>
<text transform="matrix(.76906 0 0 .76906 58.949 760.37)" xml:space="preserve"><tspan x="0 6.2159996 16.594666 21.765333 32.143997" y="0" fill="#000000" font-family="'Artifakt Element'" font-size="18.667px" font-weight="bold" class="fg-fl">[0,8)</tspan></text>
<path transform="matrix(.0020185 0 0 .0020185 -341.22 604.42)" d="m244277 49588h17016v7428h-17016z" fill="#eee" fill-rule="evenodd" stroke="#595959" stroke-linejoin="round" stroke-miterlimit="8" stroke-width="762"/>
<text transform="matrix(.76906 0 0 .76906 165.04 717.35)" xml:space="preserve"><tspan x="0" y="0" fill="#999999" font-family="'Artifakt Element'" font-size="18.667px" font-weight="bold">2</tspan></text>
<path transform="matrix(.0020185 0 0 .0020185 -341.22 604.42)" d="m261460 49588h17016v7428h-17016z" fill="#eee" fill-rule="evenodd" stroke="#595959" stroke-linejoin="round" stroke-miterlimit="8" stroke-width="762"/>
<text transform="matrix(.76906 0 0 .76906 199.73 717.35)" clip-path="url(#bz)" xml:space="preserve"><tspan x="0" y="0" fill="#000000" font-family="'Artifakt Element'" font-size="18.667px" font-weight="bold">3</tspan></text>
<path transform="matrix(.0020185 0 0 .0020185 -341.22 604.42)" d="m278480 49588h17016v7428h-17016z" clip-path="url(#by)" fill="#eee" fill-rule="evenodd" stroke="#595959" stroke-linejoin="round" stroke-miterlimit="8" stroke-width="762"/>
<text transform="matrix(.76906 0 0 .76906 234.1 717.35)" xml:space="preserve"><tspan x="0" y="0" fill="#000000" font-family="'Artifakt Element'" font-size="18.667px" font-weight="bold">4</tspan></text>
<path transform="matrix(.0020185 0 0 .0020185 -341.22 604.42)" d="m295663 49588h17016v7428h-17016z" fill="#eee" fill-rule="evenodd" stroke="#595959" stroke-linejoin="round" stroke-miterlimit="8" stroke-width="762"/>
<text transform="matrix(.76906 0 0 .76906 268.78 717.35)" xml:space="preserve"><tspan x="0" y="0" fill="#000000" font-family="'Artifakt Element'" font-size="18.667px" font-weight="bold">5</tspan></text>
<path transform="matrix(.0020185 0 0 .0020185 -341.22 604.42)" d="m244277 57016h17016v7428h-17016z" fill="#eee" fill-rule="evenodd" stroke="#595959" stroke-linejoin="round" stroke-miterlimit="8" stroke-width="762"/>
<text transform="matrix(.76906 0 0 .76906 161.86 732.34)" xml:space="preserve"><tspan x="0" y="0" fill="#999999" font-family="'Artifakt Element'" font-size="18.667px" font-weight="bold">…</tspan></text>
<path transform="matrix(.0020185 0 0 .0020185 -341.22 604.42)" d="m261460 57016h17016v7428h-17016z" fill="#eee" fill-rule="evenodd" stroke="#595959" stroke-linejoin="round" stroke-miterlimit="8" stroke-width="762"/>
<text transform="matrix(.76906 0 0 .76906 191.76 732.34)" xml:space="preserve"><tspan x="0" y="0" fill="#38761d" font-family="'Artifakt Element'" font-size="18.667px" font-weight="bold">4</tspan></text>
<text transform="matrix(.76906 0 0 .76906 199.74 732.34)" xml:space="preserve"><tspan x="0 5.1706667" y="0" fill="#999999" font-family="'Artifakt Element'" font-size="18.667px" font-weight="bold">, </tspan></text>
<text transform="matrix(.76906 0 0 .76906 207.71 732.34)" xml:space="preserve"><tspan x="0" y="0" fill="#bf9000" font-family="'Artifakt Element'" font-size="18.667px" font-weight="bold">5</tspan></text>
<path transform="matrix(.0020185 0 0 .0020185 -341.22 604.42)" d="m278480 57016h17016v7428h-17016z" fill="#eee" fill-rule="evenodd" stroke="#595959" stroke-linejoin="round" stroke-miterlimit="8" stroke-width="762"/>
<text transform="matrix(.76906 0 0 .76906 222.93 732.34)" xml:space="preserve"><tspan x="0" y="0" fill="#38761d" font-family="'Artifakt Element'" font-size="18.667px" font-weight="bold">3</tspan></text>
<text transform="matrix(.76906 0 0 .76906 230.91 732.34)" xml:space="preserve"><tspan x="0 5.1706667 10.341333" y="0" fill="#999999" font-family="'Artifakt Element'" font-size="18.667px" font-weight="bold">, …</tspan></text>
<path transform="matrix(.0020185 0 0 .0020185 -341.22 604.42)" d="m295663 57016h17016v7428h-17016z" fill="#eee" fill-rule="evenodd" stroke="#595959" stroke-linejoin="round" stroke-miterlimit="8" stroke-width="762"/>
<text transform="matrix(.76906 0 0 .76906 257.62 732.34)" xml:space="preserve"><tspan x="0" y="0" fill="#bf9000" font-family="'Artifakt Element'" font-size="18.667px" font-weight="bold">3</tspan></text>
<text transform="matrix(.76906 0 0 .76906 265.59 732.34)" xml:space="preserve"><tspan x="0 5.1706667 10.341333" y="0" fill="#999999" font-family="'Artifakt Element'" font-size="18.667px" font-weight="bold">, …</tspan></text>
<path transform="matrix(.0020185 0 0 .0020185 -341.22 604.42)" d="m312683 49588h17016v7428h-17016z" fill="#eee" fill-rule="evenodd" stroke="#595959" stroke-linejoin="round" stroke-miterlimit="8" stroke-width="762"/>
<text transform="matrix(.76906 0 0 .76906 303.13 717.35)" xml:space="preserve"><tspan x="0" y="0" fill="#999999" font-family="'Artifakt Element'" font-size="18.667px" font-weight="bold">6</tspan></text>
<path transform="matrix(.0020185 0 0 .0020185 -341.22 604.42)" d="m312683 57016h17016v7428h-17016z" fill="#eee" fill-rule="evenodd" stroke="#595959" stroke-linejoin="round" stroke-miterlimit="8" stroke-width="762"/>
<text transform="matrix(.76906 0 0 .76906 299.95 732.34)" xml:space="preserve"><tspan x="0" y="0" fill="#999999" font-family="'Artifakt Element'" font-size="18.667px" font-weight="bold">…</tspan></text>
<path transform="matrix(.0020185 0 0 .0020185 -341.22 604.42)" d="m196663 49588h47328v7428h-47328z" fill-opacity="0"/>
<text transform="matrix(.76906 0 0 .76906 55.746 717.35)" font-family="'Liberation Sans'" xml:space="preserve"><tspan x="0 5.1706667 11.386666 21.765333 38.359997 43.530666 48.701332 60.087997 71.474663 81.853333" y="0" fill="#000000" font-family="'Liberation Sans'" font-size="18.667px" font-weight="bold" class="fg-fl">Item index</tspan></text>
<path transform="matrix(.0020185 0 0 .0020185 -341.22 604.42)" d="m196663 57016h47328v7428h-47328z" fill-opacity="0"/>
<text transform="matrix(.76906 0 0 .76906 55.746 732.34)" dominant-baseline="auto" fill="#000000" font-family="'Liberation Sans'" font-size="18.667px" font-weight="bold" stop-color="#000000" style="-inkscape-stroke:none;font-feature-settings:normal;font-variant-alternates:normal;font-variant-caps:normal;font-variant-east-asian:normal;font-variant-ligatures:normal;font-variant-numeric:normal;font-variant-position:normal;font-variation-settings:normal;line-height:normal;text-decoration-color:#000000;text-decoration-line:none;text-decoration-style:solid;text-indent:0;text-orientation:mixed;text-transform:none;white-space:normal" xml:space="preserve"><tspan x="0 13.477333 24.863998 36.250664 47.637333 58.015999 68.394661 74.610664 79.781334 91.167999 102.55466" y="0" dominant-baseline="auto" fill="#000000" font-family="'Liberation Sans'" font-size="18.667px" font-weight="bold" stop-color="#000000" style="-inkscape-stroke:none;font-feature-settings:normal;font-variant-alternates:normal;font-variant-caps:normal;font-variant-east-asian:normal;font-variant-ligatures:normal;font-variant-numeric:normal;font-variant-position:normal;font-variation-settings:normal;line-height:normal;text-decoration-color:#000000;text-decoration-line:none;text-decoration-style:solid;text-indent:0;text-orientation:mixed;text-transform:none;white-space:normal" class="fg-fl">Connections</tspan></text>
<path transform="matrix(.0020185 0 0 .0020185 -341.22 604.42)" d="m244545 152661h17016v7428h-17016z" fill="#eee" fill-rule="evenodd" stroke="#595959" stroke-linejoin="round" stroke-miterlimit="8" stroke-width="762"/>
<text transform="matrix(.76906 0 0 .76906 162.4 925.4)" clip-path="url(#az)" xml:space="preserve"><tspan x="0" y="0" fill="#999999" font-family="'Artifakt Element'" font-size="18.667px" font-weight="bold">…</tspan></text>
<path transform="matrix(.0020185 0 0 .0020185 -341.22 604.42)" d="m261728 152661h17016v7428h-17016z" clip-path="url(#ay)" fill="#eee" fill-rule="evenodd" stroke="#595959" stroke-linejoin="round" stroke-miterlimit="8" stroke-width="762"/>
<text transform="matrix(.76906 0 0 .76906 192.3 925.4)" xml:space="preserve"><tspan x="0" y="0" fill="#38761d" font-family="'Artifakt Element'" font-size="18.667px" font-weight="bold">9</tspan></text>
<text transform="matrix(.76906 0 0 .76906 200.28 925.4)" xml:space="preserve"><tspan x="0 5.1706667" y="0" fill="#999999" font-family="'Artifakt Element'" font-size="18.667px" font-weight="bold">, </tspan></text>
<text transform="matrix(.76906 0 0 .76906 208.24 925.4)" xml:space="preserve"><tspan x="0" y="0" fill="#bf9000" font-family="'Artifakt Element'" font-size="18.667px" font-weight="bold">7</tspan></text>
<path transform="matrix(.0020185 0 0 .0020185 -341.22 604.42)" d="m278748 152661h17016v7428h-17016z" fill="#eee" fill-rule="evenodd" stroke="#595959" stroke-linejoin="round" stroke-miterlimit="8" stroke-width="762"/>
<text transform="matrix(.76906 0 0 .76906 223.47 925.4)" xml:space="preserve"><tspan x="0" y="0" fill="#38761d" font-family="'Artifakt Element'" font-size="18.667px" font-weight="bold">8</tspan></text>
<text transform="matrix(.76906 0 0 .76906 231.45 925.4)" xml:space="preserve"><tspan x="0 5.1706667 10.341333" y="0" fill="#999999" font-family="'Artifakt Element'" font-size="18.667px" font-weight="bold">, …</tspan></text>
<path transform="matrix(.0020185 0 0 .0020185 -341.22 604.42)" d="m295931 152661h17016v7428h-17016z" fill="#eee" fill-rule="evenodd" stroke="#595959" stroke-linejoin="round" stroke-miterlimit="8" stroke-width="762"/>
<text transform="matrix(.76906 0 0 .76906 258.15 925.4)" xml:space="preserve"><tspan x="0" y="0" fill="#bf9000" font-family="'Artifakt Element'" font-size="18.667px" font-weight="bold">8</tspan></text>
<text transform="matrix(.76906 0 0 .76906 266.13 925.4)" xml:space="preserve"><tspan x="0 5.1706667 10.341333" y="0" fill="#999999" font-family="'Artifakt Element'" font-size="18.667px" font-weight="bold">, …</tspan></text>
<path transform="matrix(.0020185 0 0 .0020185 -341.22 604.42)" d="m312951 152661h17016v7428h-17016z" fill="#eee" fill-rule="evenodd" stroke="#595959" stroke-linejoin="round" stroke-miterlimit="8" stroke-width="762"/>
<text transform="matrix(.76906 0 0 .76906 300.49 925.4)" xml:space="preserve"><tspan x="0" y="0" fill="#999999" font-family="'Artifakt Element'" font-size="18.667px" font-weight="bold">…</tspan></text>
<path transform="matrix(.0020185 0 0 .0020185 -341.22 604.42)" d="m196948 152661h47328v7428h-47328z" fill-opacity="0"/>
<text transform="matrix(.76906 0 0 .76906 56.322 925.4)" dominant-baseline="auto" fill="#000000" font-family="'Liberation Sans'" font-size="18.667px" font-weight="bold" stop-color="#000000" style="-inkscape-stroke:none;font-feature-settings:normal;font-variant-alternates:normal;font-variant-caps:normal;font-variant-east-asian:normal;font-variant-ligatures:normal;font-variant-numeric:normal;font-variant-position:normal;font-variation-settings:normal;line-height:normal;text-decoration-color:#000000;text-decoration-line:none;text-decoration-style:solid;text-indent:0;text-orientation:mixed;text-transform:none;white-space:normal" xml:space="preserve"><tspan x="0 12.431999 23.818666 31.079998 37.295998 47.674664 59.061333 64.231995 74.610664 85.99733 97.383995 108.77066" y="0" dominant-baseline="auto" fill="#000000" font-family="'Liberation Sans'" font-size="18.667px" font-weight="bold" stop-color="#000000" style="-inkscape-stroke:none;font-feature-settings:normal;font-variant-alternates:normal;font-variant-caps:normal;font-variant-east-asian:normal;font-variant-ligatures:normal;font-variant-numeric:normal;font-variant-position:normal;font-variation-settings:normal;line-height:normal;text-decoration-color:#000000;text-decoration-line:none;text-decoration-style:solid;text-indent:0;text-orientation:mixed;text-transform:none;white-space:normal" class="fg-fl">Sorted conn.</tspan></text>
<path transform="matrix(.0020185 0 0 .0020185 -341.22 604.42)" d="m329699 60730h9793v95640h-9529" fill-opacity="0"/>
<g transform="matrix(1.4943 0 0 1.4943 -25.942 -458.87)" stroke="#c00" stroke-width="762">
<path transform="matrix(.0013508 0 0 .0013508 -210.99 711.57)" d="m329699 60730h9793v95640h-6917.6" fill="none" stroke-linejoin="round" stroke-miterlimit="8"/>
<path transform="matrix(.0013508 0 0 .0013508 -210.99 711.57)" d="m332574 156370 856.95-856.94-2354.4 856.94 2354.4 856.94z" fill="#c00" fill-rule="evenodd" stroke-miterlimit="10"/>
<path transform="matrix(.0013508 0 0 .0013508 -210.99 711.57)" d="m307915 127122h31524" fill-opacity="0" stroke-linejoin="round" stroke-miterlimit="8"/>
</g>
<path transform="matrix(.0020185 0 0 .0020185 -341.22 604.42)" d="m238135 85063h9792v10812h-9792z" fill-opacity="0"/>
<text transform="matrix(.76906 0 0 .76906 146.5 790.73)" xml:space="preserve"><tspan x="0" y="0" fill="#000000" font-family="'Artifakt Element'" font-size="13.333px" font-weight="bold">5</tspan></text>
<path transform="matrix(.0020185 0 0 .0020185 -341.22 604.42)" d="m258527 85604h9792v10812h-9792z" fill-opacity="0"/>
<text transform="matrix(.76906 0 0 .76906 187.67 791.82)" xml:space="preserve"><tspan x="0" y="0" fill="#000000" font-family="'Artifakt Element'" font-size="13.333px" font-weight="bold">3</tspan></text>
<path transform="matrix(.0020185 0 0 .0020185 -341.22 604.42)" d="m268319 94636h9792v10812h-9792z" fill-opacity="0"/>
<text transform="matrix(.76906 0 0 .76906 207.42 810.05)" xml:space="preserve"><tspan x="0" y="0" fill="#000000" font-family="'Artifakt Element'" font-size="13.333px" font-weight="bold">4</tspan></text>
<path transform="matrix(.0020185 0 0 .0020185 -341.22 604.42)" d="m244511 145233h17016v7428h-17016z" fill="#eee" fill-rule="evenodd" stroke="#595959" stroke-linejoin="round" stroke-miterlimit="8" stroke-width="762"/>
<text transform="matrix(.76906 0 0 .76906 165.52 910.41)" clip-path="url(#z)" xml:space="preserve"><tspan x="0" y="0" fill="#999999" font-family="'Artifakt Element'" font-size="18.667px" font-weight="bold">2</tspan></text>
<path transform="matrix(.0020185 0 0 .0020185 -341.22 604.42)" d="m261694 145232h17016v7428h-17016z" clip-path="url(#y)" fill="#eee" fill-rule="evenodd" stroke="#595959" stroke-linejoin="round" stroke-miterlimit="8" stroke-width="762"/>
<text transform="matrix(.76906 0 0 .76906 200.2 910.41)" xml:space="preserve"><tspan x="0" y="0" fill="#000000" font-family="'Artifakt Element'" font-size="18.667px" font-weight="bold">3</tspan></text>
<path transform="matrix(.0020185 0 0 .0020185 -341.22 604.42)" d="m278714 145233h17016v7428h-17016z" fill="#eee" fill-rule="evenodd" stroke="#595959" stroke-linejoin="round" stroke-miterlimit="8" stroke-width="762"/>
<text transform="matrix(.76906 0 0 .76906 234.56 910.41)" xml:space="preserve"><tspan x="0" y="0" fill="#000000" font-family="'Artifakt Element'" font-size="18.667px" font-weight="bold">4</tspan></text>
<path transform="matrix(.0020185 0 0 .0020185 -341.22 604.42)" d="m295897 145232h17016v7428h-17016z" fill="#eee" fill-rule="evenodd" stroke="#595959" stroke-linejoin="round" stroke-miterlimit="8" stroke-width="762"/>
<text transform="matrix(.76906 0 0 .76906 269.24 910.41)" xml:space="preserve"><tspan x="0" y="0" fill="#000000" font-family="'Artifakt Element'" font-size="18.667px" font-weight="bold">5</tspan></text>
<path transform="matrix(.0020185 0 0 .0020185 -341.22 604.42)" d="m312917 145233h17016v7428h-17016z" fill="#eee" fill-rule="evenodd" stroke="#595959" stroke-linejoin="round" stroke-miterlimit="8" stroke-width="762"/>
<text transform="matrix(.76906 0 0 .76906 303.59 910.41)" xml:space="preserve"><tspan x="0" y="0" fill="#999999" font-family="'Artifakt Element'" font-size="18.667px" font-weight="bold">6</tspan></text>
<path transform="matrix(.0020185 0 0 .0020185 -341.22 604.42)" d="m196948 145233h47328v7428h-47328z" fill-opacity="0"/>
<text transform="matrix(.76906 0 0 .76906 56.322 910.41)" dominant-baseline="auto" fill="#000000" font-family="'Liberation Sans'" font-size="18.667px" font-weight="bold" stop-color="#000000" style="-inkscape-stroke:none;font-feature-settings:normal;font-variant-alternates:normal;font-variant-caps:normal;font-variant-east-asian:normal;font-variant-ligatures:normal;font-variant-numeric:normal;font-variant-position:normal;font-variation-settings:normal;line-height:normal;text-decoration-color:#000000;text-decoration-line:none;text-decoration-style:solid;text-indent:0;text-orientation:mixed;text-transform:none;white-space:normal" xml:space="preserve"><tspan x="0 5.1706667 11.386666 21.765333 38.359997 43.530666 48.701332 60.087997 71.474663 81.853333" y="0" dominant-baseline="auto" fill="#000000" font-family="'Liberation Sans'" font-size="18.667px" font-weight="bold" stop-color="#000000" style="-inkscape-stroke:none;font-feature-settings:normal;font-variant-alternates:normal;font-variant-caps:normal;font-variant-east-asian:normal;font-variant-ligatures:normal;font-variant-numeric:normal;font-variant-position:normal;font-variation-settings:normal;line-height:normal;text-decoration-color:#000000;text-decoration-line:none;text-decoration-style:solid;text-indent:0;text-orientation:mixed;text-transform:none;white-space:normal" class="fg-fl">Item index</tspan></text>
<path transform="matrix(.0020185 0 0 .0020185 -341.22 604.42)" d="m286381 129881c-2954.3 2596.7-14330 11627-17726 15580s-2207.5 6781.7-2649 8138" fill-opacity="0"/>
<path transform="matrix(.0020185 0 0 .0020185 -341.22 604.42)" d="m286381 129881c-2954.3 2596.7-14330 11627-17726 15580-1697.9 1976.5-2249.8 3671.9-2432.4 5042.8-11.4 85.67-21.37 170.09-30.09 253.22-4.37 41.56-8.41 82.81-12.15 123.73l-9.6 112.07" fill="none" stroke="#c00" stroke-linejoin="round" stroke-miterlimit="8" stroke-width="762"/>
<path transform="matrix(.0020185 0 0 .0020185 -341.22 604.42)" d="m266171 150993-801.16-909.3 706.66 2403.8 1003.8-2295.6z" fill="#c00" fill-rule="evenodd" stroke="#c00" stroke-miterlimit="10" stroke-width="762"/>
<path transform="matrix(.0020185 0 0 .0020185 -341.22 604.42)" d="m265880 129881c1230 2418 5939.7 10639 7380 14508s1051.7 7254.2 1262 8705" fill-opacity="0"/>
<path transform="matrix(.0020185 0 0 .0020185 -341.22 604.42)" d="m265880 129881c1230 2418 5939.7 10639 7380 14508 720.2 1934.4 983.1 3748 1092.2 5259.2 13.65 188.91 24.87 373.09 34.31 552.22 4.72 89.55 9 177.84 12.88 264.81l0.84 20.12" fill="none" stroke="#c00" stroke-linejoin="round" stroke-miterlimit="8" stroke-width="762"/>
<path transform="matrix(.0020185 0 0 .0020185 -341.22 604.42)" d="m274400 150485-895.98-816.06 965.76 2311.9 746.24-2391.8z" fill="#c00" fill-rule="evenodd" stroke="#c00" stroke-miterlimit="10" stroke-width="762"/>
<path transform="matrix(.0020185 0 0 .0020185 -341.22 604.42)" d="m265015 93173 6384 5832" fill-opacity="0"/>
<path transform="matrix(.0020185 0 0 .0020185 -341.22 604.42)" d="m266943 94934 4456 4070.7" fill="none" stroke="#73b900" stroke-linejoin="round" stroke-miterlimit="8" stroke-width="762"/>
<path transform="matrix(.0020185 0 0 .0020185 -341.22 604.42)" d="m266943 94934 1210.7-54.705-2316.3-955.29 1160.3 2220.6z" fill="#73b900" fill-rule="evenodd" stroke="#73b900" stroke-miterlimit="10" stroke-width="762"/>
<path transform="matrix(.0020185 0 0 .0020185 -341.22 604.42)" d="m261102 91970-15948-300" fill-opacity="0"/>
<path transform="matrix(.0020185 0 0 .0020185 -341.22 604.42)" d="m258491 91921-13337-250.88" fill="none" stroke="#f1c232" stroke-linejoin="round" stroke-miterlimit="8" stroke-width="762"/>
<path transform="matrix(.0020185 0 0 .0020185 -341.22 604.42)" d="m258491 91921-872.9 840.67 2370.1-812.5-2337.9-901.07z" fill="#f1c232" fill-rule="evenodd" stroke="#f1c232" stroke-miterlimit="10" stroke-width="762"/>
<g transform="matrix(1.4943 0 0 1.4943 -25.942 -458.87)" fill-opacity="0" stroke="#000" stroke-dasharray="381, 1143" stroke-linejoin="round" stroke-miterlimit="8" stroke-width="381">
<path transform="matrix(.0013508 0 0 .0013508 -210.99 711.57)" d="m263327 123408-13476-16872"/>
<path transform="matrix(.0013508 0 0 .0013508 -210.99 711.57)" d="m275953 123409-15972-23472"/>
<path transform="matrix(.0013508 0 0 .0013508 -210.99 711.57)" d="m288700 123408-10692-14844"/>
</g>
</g>
</svg>
