<?xml version="1.0" encoding="UTF-8"?>
<svg width="476.56" height="177.88" version="1.1" viewBox="0 0 476.56 177.88" xml:space="preserve" xmlns="http://www.w3.org/2000/svg">
  <style
     id="style1">
    @media (prefers-color-scheme: light) {
      tspan { fill: #333333 }
    }
    @media (prefers-color-scheme: dark) {
      tspan { fill: #dddddd }
    }
 </style>
<defs><marker id="j" overflow="visible" markerHeight="0.69999999" markerWidth="0.69999999" orient="auto-start-reverse" preserveAspectRatio="xMidYMid" viewBox="0 0 1 1"><path transform="scale(-.5)" d="m0 0 5-5-17.5 5 17.5 5z" fill="context-stroke" fill-rule="evenodd"/></marker><marker id="i" overflow="visible" markerHeight="0.69999999" markerWidth="0.69999999" orient="auto-start-reverse" preserveAspectRatio="xMidYMid" viewBox="0 0 1 1"><path transform="scale(-.5)" d="m0 0 5-5-17.5 5 17.5 5z" fill="context-stroke" fill-rule="evenodd"/></marker><marker id="e" overflow="visible" markerHeight="0.69999999" markerWidth="0.69999999" orient="auto-start-reverse" preserveAspectRatio="xMidYMid" viewBox="0 0 1 1"><path transform="scale(-.5)" d="m0 0 5-5-17.5 5 17.5 5z" fill="context-stroke" fill-rule="evenodd"/></marker><marker id="b" overflow="visible" markerHeight="0.69999999" markerWidth="0.69999999" orient="auto-start-reverse" preserveAspectRatio="xMidYMid" viewBox="0 0 1 1"><path transform="scale(-.5)" d="m0 0 5-5-17.5 5 17.5 5z" fill="context-stroke" fill-rule="evenodd"/></marker><marker id="h" overflow="visible" markerHeight="0.69999999" markerWidth="0.69999999" orient="auto-start-reverse" preserveAspectRatio="xMidYMid" viewBox="0 0 1 1"><path transform="scale(-.5)" d="m0 0 5-5-17.5 5 17.5 5z" fill="context-stroke" fill-rule="evenodd"/></marker><marker id="d" overflow="visible" markerHeight="0.69999999" markerWidth="0.69999999" orient="auto-start-reverse" preserveAspectRatio="xMidYMid" viewBox="0 0 1 1"><path transform="scale(-.5)" d="m0 0 5-5-17.5 5 17.5 5z" fill="context-stroke" fill-rule="evenodd"/></marker><marker id="c" overflow="visible" markerHeight="0.69999999" markerWidth="0.69999999" orient="auto-start-reverse" preserveAspectRatio="xMidYMid" viewBox="0 0 1 1"><path transform="scale(-.5)" d="m0 0 5-5-17.5 5 17.5 5z" fill="context-stroke" fill-rule="evenodd"/></marker><marker id="g" overflow="visible" markerHeight="0.69999999" markerWidth="0.69999999" orient="auto-start-reverse" preserveAspectRatio="xMidYMid" viewBox="0 0 1 1"><path transform="scale(-.5)" d="m0 0 5-5-17.5 5 17.5 5z" fill="context-stroke" fill-rule="evenodd"/></marker><marker id="a" overflow="visible" markerHeight="0.69999999" markerWidth="0.69999999" orient="auto-start-reverse" preserveAspectRatio="xMidYMid" viewBox="0 0 1 1"><path transform="scale(-.5)" d="m0 0 5-5-17.5 5 17.5 5z" fill="context-stroke" fill-rule="evenodd"/></marker><marker id="f" overflow="visible" markerHeight="0.69999999" markerWidth="0.69999999" orient="auto-start-reverse" preserveAspectRatio="xMidYMid" viewBox="0 0 1 1"><path transform="scale(-.5)" d="m0 0 5-5-17.5 5 17.5 5z" fill="context-stroke" fill-rule="evenodd"/></marker></defs><g transform="matrix(.63229 0 0 .63229 -3.9281 -521.85)"><g fill-rule="evenodd"><g stroke="#666" stroke-width="3"><path d="m125.81 990.05 101.02-60.357-30.052 82.58z" fill="#e87e7e"/><path d="m128.83 877.87 96.217 45.457-101.52 58.589z" fill="#f7d5d5"/><path d="m232.73 839.99-4.2931 78.287-94.702-46.467z" fill="#f7d5d5"/><path d="m29.998 839.75 90.661 28.537-60.357 51.518z" fill="#7e7ee8"/><path d="m120.17 996.11 73.489 21.718-104.8 23.234z" fill="#c66"/><path d="m59.941 931.92 53.033 55.306-101.77 5.3033z" fill="#a8a8f0"/><path d="m64.353 923.8 58.084-48.487-5.0508 106.07z" fill="#a8a8f0"/><path d="m112.68 993.96-31.062 45.204-70.206-39.901z" fill="#66c"/></g><g transform="matrix(.45571 0 0 .45571 367.67 475.42)" stroke="#666" stroke-linejoin="round" stroke-width="3"><path d="m676.77 990.98 112.07-63.901-31.391 94.502z" fill="#e87e7e"/><path d="m686.23 879.06 102.61 48.014-112.07 63.901z" fill="#f7d5d5"/><path d="m676.77 990.98 80.681 30.601-112.04 21.334z" fill="#c66"/><path d="m623.73 935.67 53.033 55.306-101.77 5.3032z" fill="#f0a8a8"/><path d="m623.73 935.67 62.495-56.609-9.462 111.92z" fill="#f0a8a8"/><path d="m676.77 990.98-31.36 51.935-70.412-46.632z" fill="#c66"/></g><circle cx="156.96" cy="926.13" r="7.5458" color="#000000" fill="#96a7e3" stroke="#2931d2" stroke-width="1.5455"/></g><g fill="none"><g stroke="#58b64c" stroke-width="3"><path d="m109.46 925.58 23.571 0.17856" marker-end="url(#j)" marker-start="url(#j)"/><path d="m166.77 948.05 9.7898 21.443" marker-end="url(#i)" marker-start="url(#i)"/><path d="m172.93 905.35 16.168-17.153" marker-end="url(#e)" marker-start="url(#e)"/></g><rect x="120.36" y="873.61" width="108.75" height="111.43" color="#000000" stroke="#d31414" stroke-width="1.5"/></g><g fill-rule="evenodd"><g stroke="#666" stroke-width="3"><path d="m407.03 971.07 23.205-63.011 62.859 1.5473 7.2352 64.306z" fill="#e87e7e"/><path d="m455.77 854.71 28.163-0.40446 8.4312 49.184-59.249-1.4029z" fill="#f7d5d5"/><path d="m404.82 977.64 95.503 2.2252-0.5637 68.209-103.37 1.2834z" fill="#c66"/><path d="m355.64 899.08 69.587 6.5005-26.522 63.352-74.638-14.412z" fill="#a8a8f0"/><path d="m358.83 894.09 40.917-42.765 50.089 2.6648-23.206 47.101z" fill="#a8a8f0"/><path d="m397.48 975.15-8.6241 73.08-89.772-13.689 21.717-74.489z" fill="#66c"/></g><circle cx="459.59" cy="938.71" r="7.5458" color="#000000" fill="#96a7e3" stroke="#2931d2" stroke-width="1.5455"/></g><g fill="none"><g stroke="#58b64c" stroke-width="3"><path d="m393.08 933.91 41.661 3.132" marker-end="url(#b)" marker-start="url(#b)"/><path d="m456.29 964.14-2.5778 38.056" marker-end="url(#h)" marker-start="url(#h)"/><path d="m463.56 914.05 2.8779-24.352" marker-end="url(#d)" marker-start="url(#d)"/></g><rect x="404.53" y="905.76" width="97.859" height="69.896" color="#000000" stroke="#d31414" stroke-width="1.5"/></g><g fill="#e87e7e" fill-rule="evenodd" stroke="#666" stroke-linejoin="round" stroke-width="1.0086"><g transform="matrix(1.4286,0,0,1.4286,-294.88,-388.43)" stop-color="#000000" style="-inkscape-stroke:none;font-variation-settings:normal"><path d="m718.27 903.65 19.567 34.98-29.165-5.9069z" fill="#ed9797" stop-color="#000000" style="-inkscape-stroke:none;font-variation-settings:normal"/><path d="m708.67 932.73 29.165 5.9069-10.41 37.527z" fill="#f7d5d5" stop-color="#000000" style="-inkscape-stroke:none;font-variation-settings:normal"/><path d="m708.67 932.73 18.756 43.434-31.031-15.561z" fill="#f3bcbc" stop-color="#000000" style="-inkscape-stroke:none;font-variation-settings:normal"/><path d="m708.67 932.73-12.275 27.873-24.786-20.195z" fill="#f5caca" stop-color="#000000" style="-inkscape-stroke:none;font-variation-settings:normal"/><path d="m696.39 960.6 31.031 15.561-25.862 28.187z" fill="#eb8e8e" stop-color="#000000" style="-inkscape-stroke:none;font-variation-settings:normal"/></g><g transform="matrix(1.4286,0,0,1.4286,-245.02,-443.27)" stop-color="#000000" style="-inkscape-stroke:none;font-variation-settings:normal"><path d="m657.28 1000.6 4.8375 44.432-32.765-15.69z" stop-color="#000000" style="-inkscape-stroke:none;font-variation-settings:normal"/><path d="m633.13 981.26 24.143 19.361-27.927 28.742z" stop-color="#000000" style="-inkscape-stroke:none;font-variation-settings:normal"/><path d="m601.29 990.32 28.058 39.041 3.7841-48.103z" stop-color="#000000" style="-inkscape-stroke:none;font-variation-settings:normal"/><path d="m610.12 963.98 23.015 17.275-31.842 9.062z" stop-color="#000000" style="-inkscape-stroke:none;font-variation-settings:normal"/></g><g transform="matrix(1.4286,0,0,1.4286,-291.91,-394.95)" stop-color="#000000" style="-inkscape-stroke:none;font-variation-settings:normal"><path d="m633.12 949.51 7.1789-22.777-25.126 20.884z" fill="#66c" stop-color="#000000" style="-inkscape-stroke:none;font-variation-settings:normal"/><path d="m640.3 926.74-25.126 20.884-4.1768-17.817z" fill="#6767e5" stop-color="#000000" style="-inkscape-stroke:none;font-variation-settings:normal"/><path d="m657.46 905.2-17.164 21.537-29.303 3.0673z" fill="#9393ec" stop-color="#000000" style="-inkscape-stroke:none;font-variation-settings:normal"/><path d="m646.69 878.05 10.768 27.149-46.467 24.604z" fill="#7e7ee8" stop-color="#000000" style="-inkscape-stroke:none;font-variation-settings:normal"/><path d="m646.69 878.05 30.882 9.8269-20.114 17.322z" fill="#7e7ee8" stop-color="#000000" style="-inkscape-stroke:none;font-variation-settings:normal"/></g><g transform="matrix(1.4286,0,0,1.4286,-220.78,-351.12)" stop-color="#000000" style="-inkscape-stroke:none;font-variation-settings:normal"><path d="m631.49 854.88 32.958 16.055 2.3494-27.606z" fill="#d5d5f7" stop-color="#000000" style="-inkscape-stroke:none;font-variation-settings:normal"/><path d="m623.92 824.01 42.877 19.318-35.307 11.551z" fill="#c5c5f4" stop-color="#000000" style="-inkscape-stroke:none;font-variation-settings:normal"/><path d="m600.03 844.9 23.886-20.884 7.5704 30.869z" fill="#7e7ee8" stop-color="#000000" style="-inkscape-stroke:none;font-variation-settings:normal"/></g></g><circle cx="680.14" cy="915.76" r="7.5458" color="#000000" fill="#96a7e3" fill-rule="evenodd" stroke="#2931d2" stroke-width="1.5455"/><g fill="none"><g stroke="#58b64c" stroke-width="3"><path d="m625.14 908.18 31.35 4.0457" marker-end="url(#a)" marker-start="url(#a)"/><path d="m696.25 933.44 25.884 31.209" marker-end="url(#g)" marker-start="url(#g)"/><path d="m672.47 938.29-15.239 44.452" marker-end="url(#f)" marker-start="url(#f)"/><path d="m683.2 892.36 2.6412-28.237" marker-end="url(#c)" marker-start="url(#c)"/></g><rect x="627.97" y="874.17" width="100.9" height="78.479" color="#000000" stroke="#d31414" stroke-width="1.5"/></g><g font-family="sans-serif" font-size="32px" letter-spacing="0px" stroke-width="1px" word-spacing="0px"><text x="44.844418" y="1100.0068" style="line-height:125%" xml:space="preserve"><tspan x="44.844418" y="1100.0068" font-size="32px">Triangles</tspan></text><text x="352.67853" y="1099.7032" style="line-height:125%" xml:space="preserve"><tspan x="352.67853" y="1099.7032" font-size="32px">Quads</tspan></text><text x="612.98676" y="1103.7032" style="line-height:125%" xml:space="preserve"><tspan x="612.98676" y="1103.7032" font-size="32px">Clusters</tspan></text></g></g></svg>
