<?xml version="1.0" encoding="UTF-8"?>
<svg width="144.12" height="130.12" version="1.1" viewBox="0 0 144.12 130.12" xml:space="preserve" xmlns="http://www.w3.org/2000/svg"><defs><marker id="c" overflow="visible" markerHeight="0.69999999" markerWidth="0.69999999" orient="auto-start-reverse" preserveAspectRatio="xMidYMid" viewBox="0 0 1 1"><path transform="scale(-.5)" d="m0 0 5-5-17.5 5 17.5 5z" fill="context-stroke" fill-rule="evenodd"/></marker><marker id="b" overflow="visible" markerHeight="0.69999999" markerWidth="0.69999999" orient="auto-start-reverse" preserveAspectRatio="xMidYMid" viewBox="0 0 1 1"><path transform="scale(-.5)" d="m0 0 5-5-17.5 5 17.5 5z" fill="context-stroke" fill-rule="evenodd"/></marker><marker id="a" overflow="visible" markerHeight="0.69999999" markerWidth="0.69999999" orient="auto-start-reverse" preserveAspectRatio="xMidYMid" viewBox="0 0 1 1"><path transform="scale(-.5)" d="m0 0 5-5-17.5 5 17.5 5z" fill="context-stroke" fill-rule="evenodd"/></marker></defs><g transform="matrix(.63173 0 0 .63173 -3.9224 -529.01)"><g fill-rule="evenodd"><g stroke="#666" stroke-width="3"><path d="m125.81 990.05 101.02-60.357-30.052 82.58z" fill="#b3b3b3"/><path d="m128.83 877.87 96.217 45.457-101.52 58.589z" fill="#e6e6e6"/><path d="m232.73 839.99-4.2931 78.287-94.702-46.467z" fill="#e6e6e6"/><path d="m29.998 839.75 90.661 28.537-60.357 51.518z" fill="#b3b3b3"/><path d="m120.17 996.11 73.489 21.718-104.8 23.234z" fill="#999"/><path d="m59.941 931.92 53.033 55.306-101.77 5.3033z" fill="#ccc"/><path d="m64.353 923.8 58.084-48.487-5.0508 106.07z" fill="#ccc"/><path d="m112.68 993.96-31.062 45.204-70.206-39.901z" fill="#999"/></g><circle cx="156.96" cy="926.13" r="7.5458" color="#000000" fill="#75a3d6" stroke="#4969a3" stroke-width="1.5455"/></g><g fill="none"><g stroke="#58b64c" stroke-width="3"><path d="m109.46 925.58 23.571 0.17856" marker-end="url(#c)" marker-start="url(#c)"/><path d="m166.77 948.05 9.7898 21.443" marker-end="url(#b)" marker-start="url(#b)"/><path d="m172.93 905.35 16.168-17.153" marker-end="url(#a)" marker-start="url(#a)"/></g><rect x="120.36" y="873.61" width="108.75" height="111.43" color="#000000" stroke="#d31414" stroke-width="1.5"/></g></g></svg>
